<svg width="19" height="25" viewBox="0 0 19 25" fill="none" xmlns="http://www.w3.org/2000/svg">
<path d="M1.42807 0.881538L1.42803 0.881481C1.47948 0.846399 1.65228 0.759792 1.7984 0.703554L2.00141 0.629436L9.51211 0.639065L16.9914 0.648653L17.2378 0.768597C17.718 1.0032 18.0705 1.45188 18.1685 1.89538C18.1687 1.89791 18.1689 1.90076 18.1691 1.90397C18.1708 1.93128 18.1726 1.97295 18.1745 2.03162C18.1784 2.14818 18.1819 2.31722 18.185 2.54301C18.1913 2.99377 18.196 3.65929 18.1994 4.55912C18.2061 6.35813 18.2073 9.08629 18.2049 12.8898L1.42807 0.881538ZM1.42807 0.881538L1.42046 0.886557C1.07932 1.11164 0.791352 1.53247 0.710778 1.89535C0.710603 1.89788 0.710414 1.90075 0.710214 1.90397C0.708522 1.93128 0.706642 1.97295 0.704723 2.03162C0.700912 2.14818 0.697406 2.31722 0.694257 2.54301C0.687969 2.99377 0.683247 3.65929 0.679891 4.55912C0.673183 6.3582 0.671961 9.08649 0.674402 12.8902L0.688856 23.5861M1.42807 0.881538L0.759986 23.7259M8.66959 18.3619C8.91249 18.2327 9.21569 18.2 9.43964 18.2C9.66287 18.2 9.96486 18.2325 10.2074 18.3607L1.94452 25C1.45624 25 1.37811 24.9854 1.10956 24.8633M8.66959 18.3619L8.95135 18.8916L8.67191 18.3607C8.67113 18.3611 8.67036 18.3615 8.66959 18.3619ZM8.66959 18.3619C8.60404 18.3968 8.54913 18.4429 8.53853 18.4518C8.5379 18.4523 8.53743 18.4527 8.53712 18.453C8.51299 18.4729 8.48621 18.4963 8.45902 18.5206C8.40387 18.5698 8.33215 18.6361 8.2476 18.7156C8.07772 18.8753 7.8453 19.0983 7.56798 19.3673C7.01278 19.906 6.27123 20.6353 5.47664 21.425L5.47579 21.4259C4.33261 22.5666 3.60337 23.2873 3.13384 23.7363C2.89859 23.9613 2.73451 24.1123 2.6193 24.2118C2.50964 24.3066 2.46898 24.3326 2.46926 24.333M2.46926 24.333C2.472 24.3316 2.4748 24.3302 2.47767 24.3287L2.75018 24.8633L2.47223 24.3315C2.47033 24.3325 2.4693 24.3331 2.46926 24.333ZM2.46926 24.333C2.37192 24.3823 2.35611 24.3849 2.34175 24.3872C2.3409 24.3873 2.34005 24.3874 2.33919 24.3876C2.2902 24.3958 2.20587 24.4 1.94452 24.4C1.69186 24.4 1.6 24.395 1.54277 24.3855C1.50921 24.3799 1.48115 24.373 1.36062 24.3183M1.36062 24.3183C1.36137 24.3187 1.36213 24.319 1.36288 24.3194L1.10956 24.8633M1.36062 24.3183C1.13129 24.2107 0.891893 23.9824 0.759986 23.7259M1.36062 24.3183C1.3597 24.3179 1.35877 24.3175 1.35784 24.3171L1.10956 24.8633M1.10956 24.8633L0.759986 23.7259M0.759986 23.7259L0.760467 23.7268L0.22577 23.999L0.759587 23.7251C0.75972 23.7253 0.759853 23.7256 0.759986 23.7259ZM0.759986 23.7259L0.688856 23.5861M0.688856 23.5861L0.68905 23.7297L0.0890508 23.7305L0.623749 23.4583L0.688856 23.5861ZM16.5994 2.15522C16.6171 2.16868 16.6338 2.18374 16.6484 2.1996C16.6526 2.20419 16.6564 2.20855 16.6597 2.21263C16.6602 2.22367 16.6607 2.23579 16.6612 2.24904C16.6651 2.35505 16.6688 2.5135 16.6722 2.72879C16.679 3.15825 16.6845 3.8004 16.6888 4.67213C16.6973 6.41491 16.701 9.06743 16.701 12.7539C16.701 17.643 16.6997 20.2864 16.6888 21.7184C16.6862 22.0536 16.6831 22.3201 16.6795 22.5321C16.2574 22.1288 15.5414 21.4185 14.2819 20.1656C14.1538 20.0379 14.0309 19.9153 13.9129 19.7976C12.5576 18.4459 11.8482 17.7385 11.3978 17.3591C11.1442 17.1455 10.9346 17.0021 10.7071 16.9069C10.5223 16.8296 10.3385 16.7923 10.1856 16.7613C10.1617 16.7565 10.1387 16.7518 10.1165 16.7472C9.39315 16.5909 8.71456 16.682 8.01568 16.9832L8.01211 16.9847C7.76521 17.093 7.5646 17.2546 7.13444 17.6618C6.69221 18.0805 5.94672 18.8211 4.59727 20.1657L16.5994 2.15522ZM16.5994 2.15522C16.5808 2.15344 16.5561 2.15142 16.5241 2.14933C16.3636 2.13889 16.0846 2.13073 15.5895 2.12461C14.6049 2.11246 12.8175 2.1088 9.53729 2.10391C7.57013 2.10391 5.76446 2.10757 4.43935 2.11367C3.77662 2.11672 3.235 2.12037 2.85376 2.12447C2.66287 2.12653 2.51382 2.12867 2.41045 2.13087C2.37612 2.13161 2.34795 2.13232 2.32562 2.133C2.28942 2.15 2.23992 2.18642 2.18984 2.26153L2.18995 2.2616L2.18285 2.27179L2.17831 2.27831V12.7197C2.17831 17.8385 2.17954 20.4938 2.19111 21.8791C2.1933 22.1415 2.19585 22.3564 2.19878 22.5325M16.5994 2.15522L2.19878 22.5325M2.19878 22.5325C2.62292 22.1275 3.34027 21.4159 4.5972 20.1658L2.19878 22.5325ZM18.7609 1.79688C18.6291 1.14746 18.1408 0.541994 17.5012 0.229494L18.7609 1.79688ZM18.1904 23.5884L18.2049 12.8902L12.9797 21.8506L13.403 21.4254C13.4031 21.4255 13.4032 21.4256 13.4033 21.4257C14.5466 22.5641 15.2758 23.2847 15.7454 23.7338C15.9808 23.9589 16.1446 24.1096 16.2594 24.2085C16.364 24.2987 16.4035 24.3239 16.4031 24.3245C16.4031 24.3245 16.403 24.3245 16.4028 24.3244L16.4098 24.3281C16.5131 24.3828 16.5288 24.3852 16.5407 24.3871C16.5416 24.3873 16.5425 24.3874 16.5433 24.3875C16.5903 24.3957 16.6726 24.4 16.9348 24.4C17.182 24.4 17.2752 24.3951 17.3325 24.3858C17.364 24.3807 17.3892 24.3749 17.4947 24.3253L17.4947 24.3253L17.4992 24.3232C17.7531 24.2062 18.0126 23.9502 18.1138 23.7418L18.1138 23.7417L18.1168 23.7356L18.1904 23.5884ZM0.712041 1.87987C0.712036 1.87983 0.711954 1.88056 0.711808 1.88214L0.712041 1.87987ZM18.1672 1.87993C18.1673 1.88016 18.1673 1.8809 18.1675 1.88212L18.1672 1.87993ZM13.4354 21.0162L13.435 21.0157C13.3253 20.9064 13.2196 20.801 13.1178 20.6995C11.7078 19.2934 11.0345 18.622 10.6248 18.2769C10.4139 18.0993 10.3113 18.0421 10.2438 18.0139C10.1748 17.985 10.1174 17.9731 9.95746 17.9398C9.93073 17.9343 9.90114 17.9281 9.86815 17.9212L9.86815 17.9212L9.86434 17.9204C9.41652 17.8234 8.9922 17.869 8.49055 18.0852L8.49054 18.0852C8.45761 18.0993 8.38363 18.1317 7.95943 18.5333C7.53131 18.9386 6.79977 19.6652 5.44419 21.0159L5.44381 21.0162C4.08732 22.3654 3.34376 23.1029 2.92067 23.5018C2.71339 23.6972 2.5611 23.8325 2.4417 23.9196C2.31836 24.0096 2.14816 24.1107 1.92011 24.1107C1.80692 24.1107 1.69456 24.0902 1.59783 24.0597C1.51808 24.0345 1.37582 23.9801 1.25379 23.8636C1.11638 23.7345 1.07099 23.5817 1.05174 23.4913C1.03351 23.4057 1.02473 23.3052 1.01847 23.1979C1.00532 22.9727 0.996926 22.5811 0.991147 21.8892C0.979524 20.4974 0.978309 17.8353 0.978309 12.7197V2.08985V1.90138L1.08607 1.74677L1.19517 1.59023C1.40177 1.28296 1.70567 1.04329 2.07898 0.954405L2.08665 0.952579L2.09435 0.950958C2.14433 0.940437 2.19208 0.937815 2.19604 0.937595L2.1963 0.937582C2.21315 0.936466 2.23136 0.935625 2.24875 0.934944C2.28422 0.933556 2.3304 0.932308 2.3849 0.931149C2.49464 0.92881 2.64867 0.926609 2.84085 0.924541C3.22576 0.920403 3.77025 0.916735 4.43382 0.913681C5.7613 0.907572 7.56891 0.903908 9.53729 0.903908L9.53819 0.90391C12.8151 0.908789 14.6114 0.912447 15.6043 0.924706C16.0979 0.930799 16.4061 0.939117 16.602 0.951866C16.6989 0.95817 16.7858 0.966562 16.8615 0.980274C16.9323 0.993099 17.0296 1.01655 17.1289 1.07236C17.423 1.23287 17.6885 1.5057 17.8097 1.83211C17.8277 1.88066 17.8355 1.92057 17.8379 1.93289L17.8379 1.93292C17.842 1.95359 17.8445 1.97158 17.846 1.9837C17.8492 2.00823 17.8512 2.03261 17.8527 2.0528C17.8557 2.0944 17.8582 2.14621 17.8604 2.20489C17.8647 2.32368 17.8686 2.49215 17.872 2.70975C17.879 3.14607 17.8845 3.7936 17.8888 4.66625C17.8973 6.41224 17.901 9.06734 17.901 12.7539C17.901 17.6402 17.8997 20.2898 17.8887 21.7276C17.8833 22.4439 17.8753 22.8699 17.8632 23.124C17.8573 23.248 17.8496 23.351 17.8369 23.4332C17.8306 23.4742 17.8202 23.5293 17.8005 23.5878C17.782 23.6429 17.7435 23.7376 17.6604 23.8281C17.4541 24.0538 17.1614 24.1107 16.9641 24.1107C16.7568 24.1107 16.5962 24.033 16.4547 23.9327C16.3351 23.848 16.1851 23.7155 15.9817 23.5243C15.565 23.1324 14.821 22.3944 13.4354 21.0162ZM2.27559 2.13496C2.2689 2.1354 2.27038 2.13549 2.27736 2.13488L2.27559 2.13496ZM1.72093 22.9595C1.72092 22.9595 1.72126 22.9593 1.72195 22.9589L1.72093 22.9595Z" stroke="#2B2B2D" stroke-width="1.2"/>
</svg>
